HIERARCHY
ROOT Hips
{
	OFFSET 0.00000 0.00000 0.00000
	CHANNELS 6 Xposition Yposition Zposition Zrotation Yrotation Xrotation 
	JOINT LHipJoint
	{
		OFFSET 0 0 0
		CHANNELS 3 Zrotation Yrotation Xrotation
		JOINT LeftUpLeg
		{
			OFFSET 1.34019 -1.87553 0.90315
			CHANNELS 3 Zrotation Yrotation Xrotation
			JOINT LeftLeg
			{
				OFFSET 2.55316 -7.01474 0.00000
				CHANNELS 3 Zrotation Yrotation Xrotation
				JOINT LeftFoot
				{
					OFFSET 2.64657 -7.27139 0.00000
					CHANNELS 3 Zrotation Yrotation Xrotation
					JOINT LeftToeBase
					{
						OFFSET 0.24207 -0.66507 2.14489
						CHANNELS 3 Zrotation Yrotation Xrotation
						End Site
						{
							OFFSET 0.00000 -0.00000 1.12451
						}
					}
				}
			}
		}
	}
	JOINT RHipJoint
	{
		OFFSET 0 0 0
		CHANNELS 3 Zrotation Yrotation Xrotation
		JOINT RightUpLeg
		{
			OFFSET -1.28320 -1.87553 0.90315
			CHANNELS 3 Zrotation Yrotation Xrotation
			JOINT RightLeg
			{
				OFFSET -2.60484 -7.15674 0.00000
				CHANNELS 3 Zrotation Yrotation Xrotation
				JOINT RightFoot
				{
					OFFSET -2.60296 -7.15159 0.00000
					CHANNELS 3 Zrotation Yrotation Xrotation
					JOINT RightToeBase
					{
						OFFSET -0.31082 -0.85398 2.28998
						CHANNELS 3 Zrotation Yrotation Xrotation
						End Site
						{
							OFFSET -0.00000 -0.00000 1.21611
						}
					}
				}
			}
		}
	}
	JOINT LowerBack
	{
		OFFSET 0 0 0
		CHANNELS 3 Zrotation Yrotation Xrotation
		JOINT Spine
		{
			OFFSET -0.00160 2.05581 -0.15156
			CHANNELS 3 Zrotation Yrotation Xrotation
			JOINT Spine1
			{
				OFFSET 0.04594 2.06326 -0.01617
				CHANNELS 3 Zrotation Yrotation Xrotation
				JOINT Neck
				{
					OFFSET 0 0 0
					CHANNELS 3 Zrotation Yrotation Xrotation
					JOINT Neck1
					{
						OFFSET 0.03753 1.73883 0.26751
						CHANNELS 3 Zrotation Yrotation Xrotation
						JOINT Head
						{
							OFFSET -0.09795 1.76129 -0.31794
							CHANNELS 3 Zrotation Yrotation Xrotation
							End Site
							{
								OFFSET -0.03611 1.79987 -0.13846
							}
						}
					}
				}
				JOINT LeftShoulder
				{
					OFFSET 0 0 0
					CHANNELS 3 Zrotation Yrotation Xrotation
					JOINT LeftArm
					{
						OFFSET 3.30667 1.29205 -0.22445
						CHANNELS 3 Zrotation Yrotation Xrotation
						JOINT LeftForeArm
						{
							OFFSET 4.92785 -0.00000 -0.00000
							CHANNELS 3 Zrotation Yrotation Xrotation
							JOINT LeftHand
							{
								OFFSET 3.44052 -0.00000 0.00000
								CHANNELS 3 Zrotation Yrotation Xrotation
								JOINT LeftFingerBase
								{
									OFFSET 0 0 0
									CHANNELS 3 Zrotation Yrotation Xrotation
									JOINT LeftHandIndex1
									{
										OFFSET 0.65433 -0.00000 0.00000
										CHANNELS 3 Zrotation Yrotation Xrotation
										End Site
										{
											OFFSET 0.52753 -0.00000 0.00000
										}
									}
								}
								JOINT LThumb
								{
									OFFSET 0 0 0
									CHANNELS 3 Zrotation Yrotation Xrotation
									End Site
									{
										OFFSET 0.53559 -0.00000 0.53559
									}
								}
							}
						}
					}
				}
				JOINT RightShoulder
				{
					OFFSET 0 0 0
					CHANNELS 3 Zrotation Yrotation Xrotation
					JOINT RightArm
					{
						OFFSET -3.20032 1.49783 -0.27688
						CHANNELS 3 Zrotation Yrotation Xrotation
						JOINT RightForeArm
						{
							OFFSET -5.09181 -0.00000 -0.00000
							CHANNELS 3 Zrotation Yrotation Xrotation
							JOINT RightHand
							{
								OFFSET -3.49865 -0.00000 -0.00000
								CHANNELS 3 Zrotation Yrotation Xrotation
								JOINT RightFingerBase
								{
									OFFSET 0 0 0
									CHANNELS 3 Zrotation Yrotation Xrotation
									JOINT RightHandIndex1
									{
										OFFSET -0.66641 -0.00000 0.00000
										CHANNELS 3 Zrotation Yrotation Xrotation
										End Site
										{
											OFFSET -0.53728 -0.00000 0.00000
										}
									}
								}
								JOINT RThumb
								{
									OFFSET 0 0 0
									CHANNELS 3 Zrotation Yrotation Xrotation
									End Site
									{
										OFFSET -0.54548 -0.00000 0.54548
									}
								}
							}
						}
					}
				}
			}
		}
	}
}
MOTION
Frames: 12
Frame Time: .0083333
1.8225 17.9979 4.4801 0 0 0 0 0 0 -21 0 0 0 0 0 0 0 0 0 0 0 0 0 0 21 0 0 0 0 0 0 0 0 0 0 0 0 0 0 0 0 0 0 0 0 0 0 -16 0 0 21 0 0 11 0 0 0 -8 0 0 0 0 0 0 0 0 0 0 0 0 0 0 0 0 0 0 0 0 8 0 0 0 0 0 0 0 0 0 0 0 0 0 0 0 0 0
1.8225 17.9979 4.4801 -2.1530 7.9546 2.8432 0.0000 0.0000 0.0000 -13.5880 -5.5188 -5.4297 2.0292 8.9266 25.5659 -0.1345 14.2425 -18.6467 0.2520 -3.2302 -8.9202 0.0000 0.0000 0.0000 18.9980 -0.6911 -8.1116 -2.5714 -9.9666 28.8687 0.9019 -22.1239 -24.0073 -0.0435 1.3454 -3.6998 -1.7715 0.1859 1.1729 1.6080 0.2401 -1.1863 2.6382 0.1563 -1.8888 9.3388 6.0342 -17.8515 -8.1886 7.5197 17.0498 -3.3303 3.3086 8.9571 -0.0000 -0.0000 0.0000 -22.7141 0.8502 -30.7832 11.6419 -19.2655 -1.9826 -0.0000 -0.0000 9.7008 13.2149 8.2672 1.9339 -7.1250 0.0000 -0.0000 -11.7001 38.2225 1.9851 -0.0000 -0.0000 0.0000 20.4798 -5.3427 -40.7494 -11.2599 18.6855 -1.8583 0.0000 0.0000 6.4797 -14.9087 -5.5602 1.4777 7.1250 -0.0000 -0.0000 9.8289 -35.5881 2.3010
1.8222 17.9980 4.4800 -2.1360 7.9569 2.8516 0.0000 0.0000 0.0000 -13.6045 -5.5001 -5.4402 2.0281 8.9244 25.5593 -0.1355 14.2411 -18.6321 0.2522 -3.2311 -8.9229 0.0000 0.0000 0.0000 18.9753 -0.7198 -8.1351 -2.5727 -9.9689 28.8759 0.8988 -22.1041 -23.9996 -0.0441 1.3546 -3.7250 -1.7493 0.2074 1.1797 1.5838 0.2689 -1.2369 2.5999 0.1714 -1.9460 9.8983 6.3074 -17.7054 -8.5485 7.8611 17.3333 -3.5014 3.4709 9.1014 0.0000 -0.0000 0.0000 -22.6987 0.8798 -30.6356 11.6713 -19.3098 -1.9922 -0.0000 -0.0000 9.7197 13.2565 8.3623 1.9623 -7.1250 0.0000 -0.0000 -11.6835 38.3208 1.9535 0.0000 -0.0000 0.0000 20.5260 -5.4563 -40.7103 -11.2696 18.7003 -1.8614 0.0000 0.0000 6.4385 -14.8964 -5.5360 1.4700 7.1250 -0.0000 -0.0000 9.8354 -35.5629 2.3086
1.8217 17.9971 4.4807 -2.1563 7.9656 2.8525 0.0000 0.0000 0.0000 -13.6051 -5.6501 -5.3751 2.0272 8.9224 25.5530 -0.1507 14.3877 -18.6685 0.2557 -3.2534 -8.9851 0.0000 0.0000 0.0000 18.9976 -0.7377 -8.1354 -2.5728 -9.9691 28.8767 0.8910 -22.0757 -24.0219 -0.0436 1.3476 -3.7058 -1.7019 0.2273 1.1673 1.5801 0.2966 -1.2248 2.5686 0.1842 -1.9279 10.2620 6.5378 -17.4901 -8.8414 8.1547 17.1294 -3.6217 3.6087 9.0527 -0.0000 -0.0000 0.0000 -22.6406 0.6921 -30.9060 11.6309 -19.2488 -1.9789 -0.0000 -0.0000 9.8686 13.2078 8.3795 1.9588 -7.1250 0.0000 -0.0000 -11.7278 38.3347 1.9571 -0.0000 -0.0000 0.0000 20.5228 -5.4389 -41.3593 -11.1895 18.5781 -1.8358 0.0000 0.0000 7.3767 -14.5858 -5.0729 1.3181 7.1250 -0.0000 -0.0000 10.0228 -35.0764 2.4742
1.8196 17.9982 4.4804 -2.1589 7.9276 2.8608 0.0000 0.0000 0.0000 -13.5980 -5.6608 -5.3727 2.0258 8.9197 25.5443 -0.1511 14.4066 -18.6938 0.2496 -3.2148 -8.8773 0.0000 0.0000 0.0000 19.0138 -0.6576 -8.1318 -2.5732 -9.9698 28.8788 0.9027 -22.1274 -24.0066 -0.0441 1.3551 -3.7265 -1.7008 0.2479 1.1640 1.5726 0.3240 -1.2347 2.5595 0.1981 -1.9378 10.0588 6.5753 -17.5209 -8.6526 8.2444 17.4903 -3.5118 3.6544 9.1736 0.0000 0.0000 0.0000 -22.6105 0.7120 -30.7732 11.6460 -19.2716 -1.9839 -0.0000 -0.0000 9.8409 13.2301 8.2766 1.9383 -7.1250 0.0000 -0.0000 -11.6891 38.2330 1.9801 0.0000 0.0000 0.0000 20.5783 -5.5679 -40.8225 -11.2558 18.6793 -1.8570 0.0000 0.0000 6.6458 -14.8307 -5.3607 1.4171 7.1250 -0.0000 -0.0000 9.8637 -35.3810 2.3597
1.8184 17.9984 4.4805 -2.1586 7.9162 2.8640 0.0000 0.0000 0.0000 -13.6142 -5.7746 -5.3204 2.0245 8.9170 25.5360 -0.1615 14.5191 -18.7385 0.2474 -3.2007 -8.8379 0.0000 0.0000 0.0000 19.0192 -0.6350 -8.1312 -2.5736 -9.9705 28.8813 0.9049 -22.1385 -24.0065 -0.0443 1.3577 -3.7335 -1.6859 0.2673 1.1599 1.5641 0.3502 -1.2439 2.5415 0.2111 -1.9463 10.1088 6.6952 -17.4393 -8.6626 8.4251 17.7030 -3.4997 3.7424 9.2538 -0.0000 0.0000 0.0000 -22.5848 0.6517 -30.8131 11.6396 -19.2620 -1.9818 -0.0000 -0.0000 9.9395 13.2377 8.2337 1.9295 -7.1250 0.0000 -0.0000 -11.6744 38.1904 1.9900 -0.0000 0.0000 0.0000 20.6049 -5.6289 -40.8232 -11.2561 18.6798 -1.8571 0.0000 0.0000 6.6177 -14.8546 -5.3490 1.4164 7.1250 -0.0000 -0.0000 9.8423 -35.3703 2.3571
1.8171 17.9984 4.4806 -2.1576 7.9054 2.8651 0.0000 0.0000 0.0000 -13.6383 -5.9281 -5.2459 2.0226 8.9129 25.5234 -0.1758 14.6684 -18.7960 0.2447 -3.1832 -8.7893 0.0000 0.0000 0.0000 19.0242 -0.6113 -8.1273 -2.5741 -9.9713 28.8840 0.9068 -22.1497 -24.0096 -0.0443 1.3582 -3.7350 -1.6736 0.2858 1.1502 1.5568 0.3751 -1.2454 2.5264 0.2233 -1.9435 10.0979 6.8002 -17.3775 -8.6227 8.5906 17.9426 -3.4621 3.8237 9.3402 -0.0000 -0.0000 0.0000 -22.5633 0.5833 -30.8768 11.6301 -19.2476 -1.9786 -0.0000 -0.0000 10.0631 13.2435 8.1896 1.9201 -7.1250 0.0000 -0.0000 -11.6611 38.1465 2.0004 -0.0000 -0.0000 0.0000 20.6275 -5.6706 -40.8664 -11.2508 18.6716 -1.8554 0.0000 0.0000 6.6094 -14.8873 -5.3378 1.4167 7.1250 -0.0000 -0.0000 9.8138 -35.3605 2.3525
1.8160 17.9984 4.4807 -2.1541 7.8987 2.8648 0.0000 0.0000 0.0000 -13.6681 -6.0940 -5.1648 2.0207 8.9091 25.5115 -0.1912 14.8280 -18.8568 0.2421 -3.1664 -8.7425 0.0000 0.0000 0.0000 19.0249 -0.5979 -8.1258 -2.5749 -9.9729 28.8889 0.9075 -22.1544 -24.0118 -0.0443 1.3586 -3.7360 -1.6631 0.3027 1.1362 1.5498 0.3978 -1.2388 2.5128 0.2342 -1.9301 10.1049 6.9139 -17.3286 -8.5928 8.7652 18.1883 -3.4291 3.9089 9.4336 0.0000 -0.0000 0.0000 -22.5478 0.5239 -30.9001 11.6280 -19.2444 -1.9780 -0.0000 -0.0000 10.1409 13.2541 8.1775 1.9189 -7.1250 0.0000 -0.0000 -11.6499 38.1352 2.0017 0.0000 -0.0000 0.0000 20.6474 -5.6957 -40.9365 -11.2423 18.6587 -1.8527 0.0000 0.0000 6.6002 -14.9316 -5.3473 1.4236 7.1250 -0.0000 -0.0000 9.7787 -35.3724 2.3410
1.8151 17.9983 4.4808 -2.1484 7.8961 2.8634 0.0000 0.0000 0.0000 -13.6989 -6.2477 -5.0884 2.0190 8.9056 25.5005 -0.2058 14.9757 -18.9106 0.2405 -3.1559 -8.7130 0.0000 0.0000 0.0000 19.0214 -0.5978 -8.1258 -2.5758 -9.9744 28.8938 0.9062 -22.1492 -24.0144 -0.0443 1.3584 -3.7354 -1.6531 0.3176 1.1181 1.5428 0.4179 -1.2242 2.4995 0.2437 -1.9059 10.1893 7.0474 -17.2358 -8.6279 8.9600 18.3546 -3.4285 4.0035 9.5009 -0.0000 -0.0000 0.0000 -22.5352 0.4699 -30.8908 11.6338 -19.2532 -1.9799 -0.0000 -0.0000 10.1578 13.2642 8.2141 1.9290 -7.1250 0.0000 -0.0000 -11.6483 38.1726 1.9906 -0.0000 -0.0000 0.0000 20.6660 -5.7090 -41.0371 -11.2302 18.6402 -1.8488 0.0000 0.0000 6.6266 -14.9607 -5.3419 1.4251 7.1250 -0.0000 -0.0000 9.7541 -35.3683 2.3359
1.8142 17.9982 4.4809 -2.1462 7.8937 2.8615 0.0000 0.0000 0.0000 -13.7213 -6.3708 -5.0260 2.0176 8.9026 25.4911 -0.2181 15.0968 -18.9530 0.2391 -3.1470 -8.6882 0.0000 0.0000 0.0000 19.0205 -0.6051 -8.1280 -2.5764 -9.9756 28.8976 0.9039 -22.1376 -24.0148 -0.0443 1.3578 -3.7339 -1.6379 0.3332 1.0994 1.5373 0.4391 -1.2082 2.4847 0.2535 -1.8800 10.3081 7.1909 -17.1477 -8.6907 9.1654 18.5116 -3.4414 4.1024 9.5705 -0.0000 0.0000 0.0000 -22.5248 0.4282 -30.8204 11.6483 -19.2751 -1.9847 -0.0000 -0.0000 10.0976 13.2722 8.2925 1.9484 -7.1250 0.0000 -0.0000 -11.6567 38.2518 1.9690 -0.0000 0.0000 0.0000 20.6857 -5.7346 -41.0881 -11.2246 18.6316 -1.8470 0.0000 0.0000 6.6138 -14.9777 -5.3350 1.4249 7.1250 -0.0000 -0.0000 9.7391 -35.3621 2.3337
1.8134 17.9981 4.4809 -2.1446 7.8911 2.8606 0.0000 0.0000 0.0000 -13.7334 -6.4395 -4.9900 2.0164 8.9002 25.4836 -0.2257 15.1678 -18.9742 0.2384 -3.1421 -8.6747 0.0000 0.0000 0.0000 19.0196 -0.6148 -8.1318 -2.5769 -9.9763 28.9001 0.9011 -22.1232 -24.0141 -0.0442 1.3572 -3.7323 -1.6214 0.3491 1.0826 1.5324 0.4606 -1.1941 2.4699 0.2636 -1.8570 10.4956 7.3494 -17.0246 -8.8127 9.3881 18.6272 -3.4838 4.2091 9.6286 0.0000 -0.0000 0.0000 -22.5138 0.3910 -30.7310 11.6646 -19.2997 -1.9900 -0.0000 -0.0000 10.0131 13.2780 8.3805 1.9698 -7.1250 0.0000 -0.0000 -11.6688 38.3406 1.9452 0.0000 -0.0000 0.0000 20.7062 -5.7721 -41.1088 -11.2233 18.6298 -1.8466 0.0000 0.0000 6.5901 -14.9708 -5.3139 1.4186 7.1250 -0.0000 -0.0000 9.7417 -35.3403 2.3396
1.8126 17.9982 4.4809 -2.1432 7.8900 2.8607 0.0000 0.0000 0.0000 -13.7353 -6.4511 -4.9810 2.0154 8.8982 25.4773 -0.2277 15.1841 -18.9751 0.2383 -3.1413 -8.6724 0.0000 0.0000 0.0000 19.0180 -0.6298 -8.1380 -2.5770 -9.9766 28.9011 0.8980 -22.1058 -24.0114 -0.0442 1.3568 -3.7310 -1.6025 0.3652 1.0674 1.5276 0.4825 -1.1850 2.4539 0.2740 -1.8401 10.6503 7.4946 -16.9059 -8.9098 9.5973 18.7602 -3.5143 4.3097 9.6897 0.0000 -0.0000 0.0000 -22.5030 0.3510 -30.6331 11.6776 -19.3194 -1.9943 -0.0000 -0.0000 9.9157 13.2945 8.4773 1.9950 -7.1250 0.0000 -0.0000 -11.6737 38.4389 1.9174 0.0000 -0.0000 0.0000 20.7271 -5.8297 -41.0743 -11.2288 18.6381 -1.8484 0.0000 0.0000 6.5257 -14.9517 -5.3047 1.4143 7.1250 -0.0000 -0.0000 9.7561 -35.3300 2.3456
